# xmcd
#
# Track frame offsets:
#	150
#	15525
#	29446
#	49110
#	65618
#	81708
#	102097
#	120416
#	141874
#	158890
#	190033
#	210203
#
# Disc length: 3004 seconds
#
# Revision: 1
# Processed by: cddbd v1.5.2PL0 Copyright (c) Steve Scherf et al.
# Submitted via: EasyCDDAExtractor 10.2.0.1
#
DISCID=9c0bba0c
DTITLE=DJ Грув - Служебный роман 2
DYEAR=2004
DGENRE=Blues
TTITLE0=Утро - Служебный роман 2
TTITLE1=Встреча (из к/ф "Цыган")
TTITLE2=Падают звезды
TTITLE3=Футбольный гимн
TTITLE4=Почему Feat. Радиус Project
TTITLE5=Нежность
TTITLE6=Где же ты?
TTITLE7=Магия
TTITLE8=Бесконечность
TTITLE9=В трансе
TTITLE10=Бездна
TTITLE11=Служебный роман
EXTD=
EXTT0=
EXTT1=
EXTT2=
EXTT3=
EXTT4=
EXTT5=
EXTT6=
EXTT7=
EXTT8=
EXTT9=
EXTT10=
EXTT11=
PLAYORDER=
